<?xml version="1.0" standalone="no"?>
<!DOCTYPE svg PUBLIC "-//W3C//DTD SVG 20010904//EN"
 "http://www.w3.org/TR/2001/REC-SVG-20010904/DTD/svg10.dtd">
<svg version="1.0" xmlns="http://www.w3.org/2000/svg"
 width="100.000000pt" height="100.000000pt" viewBox="0 0 100.000000 100.000000"
 preserveAspectRatio="xMidYMid meet">

<g transform="translate(0.000000,100.000000) scale(0.100000,-0.100000)"
fill="#4C0104" stroke="none">
<path d="M215 905 c-49 -17 -90 -62 -104 -112 -15 -52 -14 -556 0 -608 14 -50
64 -100 114 -114 53 -15 497 -15 550 0 50 14 100 64 114 114 15 54 15 556 0
610 -14 50 -64 100 -114 114 -62 17 -510 14 -560 -4z m348 -189 c37 -15 62
-41 71 -73 6 -20 4 -23 -18 -23 -16 0 -27 7 -31 21 -4 11 -22 27 -40 34 -47
20 -100 4 -121 -37 -21 -40 -21 -116 0 -155 34 -66 140 -62 164 6 l11 31 -45
0 c-40 0 -44 2 -44 25 0 24 2 25 65 25 l65 0 0 -44 c0 -153 -222 -186 -270
-40 -17 51 -8 148 16 182 41 55 114 75 177 48z m-346 -502 c28 -10 102 -13
283 -13 254 0 298 6 341 45 18 17 19 16 19 -15 0 -44 -25 -88 -63 -111 -30
-18 -52 -20 -298 -20 -260 0 -267 0 -300 23 -40 27 -59 60 -59 106 0 33 1 34
19 17 11 -10 37 -24 58 -32z"/>
</g>
</svg>
